<?xml version="1.0" encoding="UTF-8"?>
<svg version="1.1" xmlns="http://www.w3.org/2000/svg" width="201" height="203">
<path d="M0 0 C66.33 0 132.66 0 201 0 C201 66.99 201 133.98 201 203 C134.67 203 68.34 203 0 203 C0 136.01 0 69.02 0 0 Z " fill="#046099" transform="translate(0,0)"/>
<path d="M0 0 C2.82541621 2.25638773 3.89143679 3.37050782 4.5146637 6.98422241 C4.52086227 8.14749054 4.52706085 9.31075867 4.53344727 10.50927734 C4.54637062 11.47593071 4.54637062 11.47593071 4.55955505 12.46211243 C4.58221056 14.58713243 4.57547688 16.71083278 4.56640625 18.8359375 C4.57164311 20.31800731 4.57791983 21.80007378 4.58518982 23.28213501 C4.59559392 26.38746833 4.59103448 29.49234345 4.57641602 32.59765625 C4.5592509 36.56807978 4.5826929 40.53705305 4.61790562 44.50731468 C4.63992121 47.5684052 4.6384279 50.62915115 4.6301403 53.69029617 C4.62932259 55.15346489 4.63615166 56.61665937 4.65091133 58.07975388 C4.76075141 70.94200748 4.76075141 70.94200748 1.56982422 74.85913086 C-9.52017488 84.09798723 -24.57895566 84.49929188 -38.4375 84.375 C-39.72720703 84.38660156 -41.01691406 84.39820313 -42.34570312 84.41015625 C-54.66399436 84.37314586 -69.19319048 83.4685188 -79.38989258 75.76782227 C-84.01043638 70.75018174 -82.83548361 63.11164248 -82.76171875 56.71484375 C-82.76322246 55.21081742 -82.76665565 53.70679189 -82.77192688 52.20277405 C-82.77624971 49.05787978 -82.75948602 45.91401403 -82.72729492 42.76928711 C-82.68747804 38.74493096 -82.69683181 34.72249869 -82.72152996 30.69808102 C-82.73573295 27.59493828 -82.72561162 24.49224268 -82.70801735 21.38913155 C-82.70218185 19.90562572 -82.7034488 18.42207388 -82.71204185 16.93858147 C-82.72006336 14.86289117 -82.69572624 12.78999277 -82.6628418 10.71459961 C-82.65235054 8.946381 -82.65235054 8.946381 -82.64164734 7.1424408 C-81.64482276 2.26053443 -78.56659595 0.120859 -74.65234375 -2.6796875 C-71.39204657 -4.30263367 -68.07805105 -5.24874101 -64.5625 -6.125 C-63.91990234 -6.29386719 -63.27730469 -6.46273437 -62.61523438 -6.63671875 C-42.82235471 -11.74066945 -17.57531266 -11.44634216 0 0 Z " fill="#F5F9FB" transform="translate(139,67)"/>
<path d="M0 0 C0.57105469 0.19335938 1.14210938 0.38671875 1.73046875 0.5859375 C13.20931867 4.27230902 24.7317627 5.41075938 36.75 5.4375 C38.57120361 5.44330078 38.57120361 5.44330078 40.42919922 5.44921875 C50.39413153 5.32202376 58.73472928 3.4590344 68 0 C68.66 0 69.32 0 70 0 C70 6.6 70 13.2 70 20 C58.62287052 25.68856474 49.34506073 27.52155251 36.78515625 27.44604492 C34.63443991 27.43753734 32.4863933 27.46639366 30.3359375 27.49804688 C19.89393765 27.55153182 8.59308201 26.56156796 0 20 C-0.56762695 17.82348633 -0.56762695 17.82348633 -0.48828125 15.33203125 C-0.47216797 14.43935547 -0.45605469 13.54667969 -0.43945312 12.62695312 C-0.39755859 11.69818359 -0.35566406 10.76941406 -0.3125 9.8125 C-0.28994141 8.87212891 -0.26738281 7.93175781 -0.24414062 6.96289062 C-0.18519227 4.64032527 -0.10297785 2.32096224 0 0 Z " fill="#0C589F" transform="translate(65,86)"/>
<path d="M0 0 C0.75023438 0.19335938 1.50046875 0.38671875 2.2734375 0.5859375 C3.29695313 0.84632812 4.32046875 1.10671875 5.375 1.375 C6.37273437 1.63023438 7.37046875 1.88546875 8.3984375 2.1484375 C9.58695313 2.42945312 10.77546875 2.71046875 12 3 C12.73742432 3.17716553 13.47484863 3.35433105 14.23461914 3.53686523 C20.75634469 4.98866597 27.0174389 5.34790771 33.6875 5.3125 C34.73752197 5.30976074 35.78754395 5.30702148 36.86938477 5.30419922 C45.2554934 5.19208374 52.8665144 4.08845685 61 2 C63.99662002 1.31787225 66.99778778 0.65703703 70 0 C70.11613204 3.10385211 70.18722029 6.20714662 70.25 9.3125 C70.28351563 10.19357422 70.31703125 11.07464844 70.3515625 11.98242188 C70.44990646 18.44853699 70.44990646 18.44853699 68.390625 20.97265625 C65.46208267 22.23116382 62.56202381 23.23308022 59.5 24.125 C58.3759375 24.45757812 57.251875 24.79015625 56.09375 25.1328125 C54.56234375 25.56207031 54.56234375 25.56207031 53 26 C52.38688965 26.17942139 51.7737793 26.35884277 51.14208984 26.54370117 C37.40632007 29.46963617 15.4977199 28.94317772 3 22 C0.93164649 20.35329935 0.09093762 19.55664254 -0.34057617 16.9152832 C-0.32486572 16.13499756 -0.30915527 15.35471191 -0.29296875 14.55078125 C-0.28330078 13.70322266 -0.27363281 12.85566406 -0.26367188 11.98242188 C-0.23853516 11.10134766 -0.21339844 10.22027344 -0.1875 9.3125 C-0.17396484 8.41982422 -0.16042969 7.52714844 -0.14648438 6.60742188 C-0.11114079 4.40433834 -0.06180493 2.20247418 0 0 Z " fill="#0A65A6" transform="translate(65,116)"/>
<path d="M0 0 C66.33 0 132.66 0 201 0 C201 13.86 201 27.72 201 42 C200.67 42 200.34 42 200 42 C199.85304687 41.39414062 199.70609375 40.78828125 199.5546875 40.1640625 C196.37773638 28.29614165 189.74930283 17.36145717 179.1875 10.75 C171.63886208 6.52045784 163.7705549 2.9021221 155.01956177 2.84609985 C154.01618271 2.83749939 153.01280365 2.82889893 151.97901917 2.82003784 C150.88395554 2.81577789 149.78889191 2.81151794 148.66064453 2.80712891 C146.92322746 2.79486267 146.92322746 2.79486267 145.15071106 2.78234863 C141.31141676 2.75750787 137.47215953 2.74097759 133.6328125 2.7265625 C132.31901485 2.72123882 131.00521721 2.71591515 129.65160751 2.71043015 C124.12358861 2.68880158 118.59557253 2.67007238 113.06752205 2.65880775 C105.177704 2.64261948 97.28838238 2.60956759 89.39875138 2.55240691 C83.83501627 2.51349178 78.27141264 2.49414925 72.70754516 2.48888719 C69.39366339 2.48526023 66.0804279 2.47096277 62.76666641 2.44078445 C43.94774743 2.27924521 28.68806787 2.75285018 14 16 C7.95647414 22.22979892 4.17755818 28.96444421 1 37 C0.67 37 0.34 37 0 37 C0 24.79 0 12.58 0 0 Z " fill="#E9EFF4" transform="translate(0,0)"/>
<path d="M0 0 C1.65721069 0.01123901 1.65721069 0.01123901 3.34790039 0.02270508 C15.53428918 0.18292275 26.12494771 0.79806751 36.8125 7.25 C35.64535357 10.75143928 34.38783498 11.58936198 31.18359375 13.265625 C14.7789787 20.07610769 -8.49035732 19.58775105 -24.875 13.1875 C-27.0129481 12.26023937 -29.10350957 11.29199521 -31.1875 10.25 C-30.9375 8.3828125 -30.9375 8.3828125 -30.1875 6.25 C-28.4375 5.0546875 -28.4375 5.0546875 -26.1875 4.125 C-25.465625 3.81304687 -24.74375 3.50109375 -24 3.1796875 C-15.9573963 0.52116016 -8.45290238 -0.07505423 0 0 Z " fill="#12549A" transform="translate(97.1875,66.75)"/>
<path d="M0 0 C0.33 0 0.66 0 1 0 C1 12.87 1 25.74 1 39 C-10.55 39 -22.1 39 -34 39 C-31.12594215 37.08396144 -28.30114921 35.67186862 -25.1875 34.1875 C-12.16840173 27.66230291 -5.82016974 17.58411473 -1 4 C-0.64285876 2.67284552 -0.29881554 1.34149102 0 0 Z " fill="#D0E1E8" transform="translate(200,164)"/>
<path d="M0 0 C1.89412106 2.8411816 3.24450973 5.59989616 4.6875 8.6875 C10.52248232 20.31548636 19.61380363 28.50830241 32 33 C32 33.33 32 33.66 32 34 C21.44 34 10.88 34 0 34 C0 22.78 0 11.56 0 0 Z " fill="#D7E0E9" transform="translate(0,169)"/>
<path d="M0 0 C0.66 0.33 1.32 0.66 2 1 C1.02659668 1.67562988 0.05319336 2.35125977 -0.94970703 3.04736328 C-5.14570756 7.28406426 -4.7898723 12.25189559 -4.83224487 17.89498901 C-4.82369654 19.34405908 -4.81449563 20.79312542 -4.8046875 22.2421875 C-4.81594557 23.73579037 -4.8298297 25.22937556 -4.84622192 26.72293091 C-4.88218943 30.63905284 -4.8826427 34.55439299 -4.87554932 38.47064209 C-4.87463497 42.47275692 -4.90751527 46.474581 -4.9375 50.4765625 C-4.99129567 58.31781593 -5.00755225 66.15856674 -5 74 C-5.33 74 -5.66 74 -6 74 C-6.11593729 65.22036618 -6.20473657 56.44099652 -6.25906086 47.66076374 C-6.28513629 43.58354433 -6.32049537 39.50684927 -6.37719727 35.42993164 C-6.43159253 31.49415637 -6.461436 27.55888488 -6.47438622 23.62276268 C-6.48361281 22.1224188 -6.5016309 20.62210198 -6.52865028 19.12197304 C-6.56504452 17.01731804 -6.56994161 14.91473435 -6.56762695 12.80981445 C-6.57873001 11.61290482 -6.58983307 10.41599518 -6.60127258 9.18281555 C-5.82923999 5.09608782 -4.12312496 3.64095856 -1 1 C-0.67 0.67 -0.34 0.34 0 0 Z " fill="#D9E3EE" transform="translate(63,65)"/>
<path d="M0 0 C0 6.27 0 12.54 0 19 C-0.66 19.33 -1.32 19.66 -2 20 C-2 14.06 -2 8.12 -2 2 C-2.99 1.67 -3.98 1.34 -5 1 C-3 0 -3 0 0 0 Z " fill="#4396C0" transform="translate(135,116)"/>
<path d="M0 0 C0 6.6 0 13.2 0 20 C-0.66 20 -1.32 20 -2 20 C-2 14.06 -2 8.12 -2 2 C-2.99 1.67 -3.98 1.34 -5 1 C-2 0 -2 0 0 0 Z " fill="#468BBC" transform="translate(135,86)"/>
<path d="M0 0 C0.66 0.33 1.32 0.66 2 1 C1.38511719 1.59748047 1.38511719 1.59748047 0.7578125 2.20703125 C0.21898437 2.73683594 -0.31984375 3.26664062 -0.875 3.8125 C-1.40867187 4.33457031 -1.94234375 4.85664062 -2.4921875 5.39453125 C-4.20776561 7.13259904 -4.20776561 7.13259904 -6 10 C-5.72510809 5.96825194 -5.46508424 4.43105369 -2.4375 1.625 C-1.633125 1.08875 -0.82875 0.5525 0 0 Z " fill="#CEDAE7" transform="translate(63,65)"/>
</svg>
